<svg width="37" height="37" viewBox="0 0 37 37" fill="none" xmlns="http://www.w3.org/2000/svg">
<path d="M27.6369 12.6069C27.6369 10.2076 26.7007 7.90645 25.0343 6.20983C23.3678 4.51321 21.1076 3.56006 18.7509 3.56006C16.3942 3.56006 14.134 4.51321 12.4675 6.20983C10.8011 7.90645 9.86489 10.2076 9.86489 12.6069C9.86489 23.1616 5.42188 26.1773 5.42188 26.1773H32.0799C32.0799 26.1773 27.6369 23.1616 27.6369 12.6069Z" stroke="white" stroke-width="2.96201" stroke-linecap="round" stroke-linejoin="round"/>
<path d="M21.3132 32.209C21.0529 32.666 20.6791 33.0453 20.2295 33.309C19.7798 33.5727 19.27 33.7115 18.7511 33.7115C18.2322 33.7115 17.7224 33.5727 17.2727 33.309C16.8231 33.0453 16.4493 32.666 16.189 32.209" stroke="white" stroke-width="2.96201" stroke-linecap="round" stroke-linejoin="round"/>
</svg>
