<svg width="139" height="37" viewBox="0 0 139 37" fill="none" xmlns="http://www.w3.org/2000/svg">
<path d="M28.1006 7.73535C28.068 7.81673 28.0029 7.96322 27.9053 8.1748C27.8076 8.38639 27.7588 8.52474 27.7588 8.58984C27.7588 8.72005 27.7507 8.89095 27.7344 9.10254C27.7344 9.29785 27.7995 9.41992 27.9297 9.46875C27.7507 9.8431 27.6367 10.2256 27.5879 10.6162C27.5553 10.9906 27.5391 11.3812 27.5391 11.7881C27.5391 12.1787 27.5309 12.5775 27.5146 12.9844C27.4984 13.375 27.4333 13.7575 27.3193 14.1318C27.3844 14.2295 27.4007 14.3516 27.3682 14.498C27.3519 14.6283 27.3926 14.734 27.4902 14.8154C27.4089 14.9456 27.36 15.0758 27.3438 15.2061C27.3275 15.32 27.3193 15.4421 27.3193 15.5723C27.3193 15.8327 27.3438 16.085 27.3926 16.3291C27.2135 16.5895 27.124 16.8825 27.124 17.208C27.1403 17.5173 27.1484 17.8346 27.1484 18.1602C27.1484 18.4368 27.1077 18.7054 27.0264 18.9658C26.9613 19.2262 26.9287 19.4948 26.9287 19.7715C26.9287 19.8529 26.9368 19.9261 26.9531 19.9912C26.9694 20.0563 26.9775 20.1296 26.9775 20.2109C26.9775 20.2923 26.945 20.3493 26.8799 20.3818C26.8311 20.3981 26.8066 20.4714 26.8066 20.6016C26.8066 21.2038 26.766 21.7897 26.6846 22.3594C26.6032 22.9128 26.4974 23.4661 26.3672 24.0195C26.2533 24.5566 26.123 25.1019 25.9766 25.6553C25.8301 26.2087 25.6999 26.7702 25.5859 27.3398C25.4069 27.5352 25.2686 27.7549 25.1709 27.999C25.0895 28.2432 24.9349 28.4385 24.707 28.585C24.4954 29.1221 24.2269 29.6104 23.9014 30.0498C23.5921 30.4893 23.2422 30.9043 22.8516 31.2949C22.4772 31.6855 22.0866 32.0599 21.6797 32.418C21.2728 32.7923 20.874 33.1748 20.4834 33.5654C20.3206 33.5654 20.1579 33.5654 19.9951 33.5654C19.8486 33.5817 19.694 33.5898 19.5312 33.5898C19.1732 33.5898 18.8151 33.5736 18.457 33.541C18.099 33.5085 17.7572 33.4515 17.4316 33.3701C17.3665 33.1423 17.2363 32.9876 17.041 32.9062C16.862 32.8411 16.6992 32.7354 16.5527 32.5889C16.39 32.4424 16.2679 32.2796 16.1865 32.1006C16.1051 31.9215 15.9342 31.7995 15.6738 31.7344C15.5924 31.4902 15.4622 31.2054 15.2832 30.8799C15.1204 30.5544 14.9577 30.2207 14.7949 29.8789C14.6322 29.5371 14.4857 29.2116 14.3555 28.9023C14.2415 28.5768 14.1846 28.3001 14.1846 28.0723C14.1846 27.9909 14.1927 27.9176 14.209 27.8525C14.2415 27.7712 14.266 27.6898 14.2822 27.6084C14.1846 27.4945 14.1195 27.348 14.0869 27.1689C14.0544 26.9899 14.0299 26.8109 14.0137 26.6318C14.0137 26.4365 13.9974 26.2575 13.9648 26.0947C13.9323 25.9157 13.859 25.7773 13.7451 25.6797C13.5498 25.8099 13.3952 25.9727 13.2812 26.168C13.1673 26.3633 13.0615 26.5749 12.9639 26.8027C12.8825 27.0306 12.8011 27.2585 12.7197 27.4863C12.6383 27.7142 12.5407 27.9258 12.4268 28.1211C12.1989 28.3001 11.9954 28.5036 11.8164 28.7314C11.6536 28.9593 11.4827 29.1872 11.3037 29.415C11.141 29.6592 10.9619 29.8789 10.7666 30.0742C10.5713 30.2858 10.3434 30.4567 10.083 30.5869C10.0179 30.8799 9.89583 31.124 9.7168 31.3193C9.55404 31.5309 9.375 31.7181 9.17969 31.8809C8.98438 32.0599 8.7972 32.2389 8.61816 32.418C8.43913 32.6133 8.30892 32.8493 8.22754 33.126C7.95085 33.2562 7.6416 33.4434 7.2998 33.6875C6.95801 33.9479 6.60807 34.2083 6.25 34.4688C5.9082 34.7292 5.55827 34.9489 5.2002 35.1279C4.8584 35.3232 4.55729 35.4209 4.29688 35.4209C4.08529 35.4209 3.88184 35.3965 3.68652 35.3477C3.50749 35.3151 3.32031 35.2744 3.125 35.2256C2.92969 35.1768 2.73438 35.1279 2.53906 35.0791C2.34375 35.0465 2.1403 35.0384 1.92871 35.0547C1.61947 34.7292 1.38346 34.3548 1.2207 33.9316C1.05794 33.5247 0.854492 33.1423 0.610352 32.7842C0.528971 32.2959 0.447591 31.7995 0.366211 31.2949C0.284831 30.8066 0.244141 30.3184 0.244141 29.8301C0.244141 29.5534 0.276693 29.293 0.341797 29.0488C0.406901 28.821 0.439453 28.585 0.439453 28.3408C0.439453 28.2594 0.423177 28.1862 0.390625 28.1211C0.374349 28.0397 0.358073 27.9583 0.341797 27.877C0.455729 27.6491 0.545247 27.4131 0.610352 27.1689C0.675456 26.9085 0.724284 26.6481 0.756836 26.3877C0.805664 26.1273 0.854492 25.875 0.90332 25.6309C0.952148 25.3704 1.02539 25.1263 1.12305 24.8984C1.1556 24.7031 1.09863 24.5566 0.952148 24.459C1.06608 24.3451 1.13932 24.223 1.17188 24.0928C1.20443 23.9626 1.2207 23.8324 1.2207 23.7021C1.23698 23.5719 1.24512 23.4336 1.24512 23.2871C1.24512 23.1406 1.26139 23.0023 1.29395 22.8721C1.31022 22.807 1.35091 22.7093 1.41602 22.5791L1.63574 22.1641C1.71712 22.0176 1.78223 21.8874 1.83105 21.7734C1.89616 21.6432 1.92871 21.5456 1.92871 21.4805C1.92871 21.3665 1.89616 21.2445 1.83105 21.1143C1.89616 20.7887 2.00195 20.4714 2.14844 20.1621C2.3112 19.8529 2.43327 19.5355 2.51465 19.21C2.59603 18.8844 2.64486 18.5996 2.66113 18.3555C2.67741 18.0951 2.75065 17.7939 2.88086 17.4521C2.89714 17.4196 2.90527 17.3789 2.90527 17.3301C2.90527 17.265 2.88086 17.2243 2.83203 17.208C2.7832 17.1917 2.74251 17.1592 2.70996 17.1104C2.90527 16.736 3.05176 16.3372 3.14941 15.9141C3.26335 15.4746 3.35286 15.027 3.41797 14.5713C3.49935 14.1156 3.57259 13.668 3.6377 13.2285C3.7028 12.7728 3.80046 12.3415 3.93066 11.9346C3.88184 11.609 3.84115 11.2754 3.80859 10.9336C3.77604 10.5755 3.75977 10.2337 3.75977 9.9082C3.75977 9.53385 3.79232 9.15137 3.85742 8.76074C3.9388 8.37012 4.1097 8.02832 4.37012 7.73535C4.50033 7.73535 4.63867 7.72721 4.78516 7.71094C4.94792 7.69466 5.0944 7.68652 5.22461 7.68652C5.41992 7.68652 5.63151 7.73535 5.85938 7.83301C5.97331 8.35384 6.11979 8.86654 6.29883 9.37109C6.47786 9.87565 6.56738 10.4128 6.56738 10.9824C6.56738 11.2591 6.53483 11.5358 6.46973 11.8125L6.29883 12.6182C6.25 12.8786 6.20931 13.1471 6.17676 13.4238C6.14421 13.6842 6.15234 13.9447 6.20117 14.2051C6.02214 14.4492 5.91634 14.734 5.88379 15.0596C5.86751 15.3688 5.85938 15.6618 5.85938 15.9385C5.69661 16.1663 5.57454 16.3942 5.49316 16.6221C5.41178 16.8499 5.34668 17.0859 5.29785 17.3301C5.2653 17.5579 5.23275 17.7939 5.2002 18.0381C5.16764 18.2822 5.12695 18.5264 5.07812 18.7705C5.04557 18.8519 4.98861 18.9495 4.90723 19.0635C4.84212 19.1774 4.80957 19.2588 4.80957 19.3076C4.80957 19.4215 4.84212 19.5355 4.90723 19.6494C4.87467 19.6982 4.84212 19.7389 4.80957 19.7715C4.77702 19.7878 4.7526 19.8285 4.73633 19.8936C4.6875 20.0726 4.64681 20.2679 4.61426 20.4795C4.59798 20.6748 4.56543 20.862 4.5166 21.041C4.43522 21.4479 4.32129 21.8467 4.1748 22.2373C4.0446 22.6279 3.90625 23.0186 3.75977 23.4092C3.75977 23.7347 3.74349 23.9951 3.71094 24.1904C3.69466 24.3857 3.66211 24.5648 3.61328 24.7275C3.58073 24.874 3.5319 25.0368 3.4668 25.2158C3.41797 25.3786 3.36914 25.5902 3.32031 25.8506C3.27148 26.0947 3.22266 26.3958 3.17383 26.7539C3.14128 27.112 3.10059 27.4863 3.05176 27.877C3.01921 28.2513 2.99479 28.6257 2.97852 29C2.96224 29.3581 2.9541 29.6673 2.9541 29.9277C2.9541 30.3997 2.99479 30.8555 3.07617 31.2949C3.17383 31.7507 3.33659 32.182 3.56445 32.5889H3.97949C4.07715 32.5889 4.18294 32.5889 4.29688 32.5889C4.41081 32.6051 4.5166 32.6377 4.61426 32.6865C4.72819 32.654 4.78516 32.6051 4.78516 32.54V32.3447C4.78516 32.2959 4.82585 32.2308 4.90723 32.1494L5.07812 32.1738C5.24089 32.1738 5.38737 32.1494 5.51758 32.1006C5.66406 32.0518 5.81055 31.9867 5.95703 31.9053C6.26628 31.4821 6.62435 31.124 7.03125 30.8311C7.45443 30.5381 7.82878 30.1963 8.1543 29.8057C8.23568 29.6755 8.26009 29.5208 8.22754 29.3418C8.42285 29.3092 8.56934 29.236 8.66699 29.1221C8.78092 29.0081 8.88672 28.8861 8.98438 28.7559C9.08203 28.6257 9.17969 28.5036 9.27734 28.3896C9.39128 28.2594 9.53776 28.1699 9.7168 28.1211C9.79818 27.9746 9.87142 27.82 9.93652 27.6572C10.0016 27.4782 10.0667 27.3073 10.1318 27.1445C10.2132 26.9818 10.3027 26.8353 10.4004 26.7051C10.5143 26.5586 10.6608 26.4447 10.8398 26.3633C11.1165 25.7448 11.3525 25.11 11.5479 24.459C11.7432 23.7917 12.0361 23.1813 12.4268 22.6279C12.4268 22.4163 12.4349 22.221 12.4512 22.042C12.4674 21.863 12.4593 21.6758 12.4268 21.4805C12.8337 20.9271 13.0941 20.3493 13.208 19.7471C13.3219 19.1449 13.3789 18.5101 13.3789 17.8428C13.3789 17.2894 13.5579 16.9069 13.916 16.6953C14.2904 16.4837 14.7298 16.3779 15.2344 16.3779H15.4785C15.5762 16.3779 15.6657 16.3861 15.7471 16.4023C15.7796 16.5163 15.8366 16.6058 15.918 16.6709C16.0156 16.7197 16.1133 16.7767 16.2109 16.8418V16.9883C16.2109 17.2161 16.1784 17.4277 16.1133 17.623C16.0645 17.8021 16.04 17.9974 16.04 18.209C16.04 18.3066 16.0563 18.4368 16.0889 18.5996C16.2516 19.0716 16.3737 19.5029 16.4551 19.8936C16.5527 20.2842 16.6016 20.7399 16.6016 21.2607C16.6016 21.7002 16.5771 22.1478 16.5283 22.6035C16.4958 23.043 16.4469 23.4824 16.3818 23.9219C16.4795 24.1009 16.5283 24.2881 16.5283 24.4834C16.5283 24.6136 16.512 24.752 16.4795 24.8984C16.4632 25.0286 16.4551 25.1589 16.4551 25.2891C16.4551 25.5658 16.4958 25.8424 16.5771 26.1191C16.6748 26.3796 16.7725 26.64 16.8701 26.9004C16.984 27.1608 17.0817 27.4212 17.1631 27.6816C17.2445 27.9421 17.277 28.2025 17.2607 28.4629C17.5374 28.8047 17.7816 29.1546 17.9932 29.5127C18.221 29.887 18.4977 30.2126 18.8232 30.4893C18.9535 30.5218 19.0592 30.5381 19.1406 30.5381C19.2383 30.5381 19.3197 30.5218 19.3848 30.4893C19.4499 30.473 19.5068 30.4486 19.5557 30.416C19.6208 30.3997 19.6859 30.3835 19.751 30.3672C19.8161 30.3672 19.9137 30.3753 20.0439 30.3916C20.3369 30.18 20.6055 29.9359 20.8496 29.6592C21.0938 29.3988 21.3216 29.1302 21.5332 28.8535C21.7611 28.5768 21.9889 28.292 22.2168 27.999C22.4447 27.7061 22.6807 27.4294 22.9248 27.1689C23.3968 25.9971 23.7793 24.8252 24.0723 23.6533C24.3652 22.4814 24.5443 21.2607 24.6094 19.9912C24.6094 19.8122 24.6501 19.7227 24.7314 19.7227C24.8128 19.7227 24.8861 19.6657 24.9512 19.5518V18.8682C24.9512 18.3473 24.9756 17.8265 25.0244 17.3057C25.0895 16.7848 25.2116 16.2721 25.3906 15.7676C25.3418 15.5723 25.3174 15.377 25.3174 15.1816C25.3174 14.7585 25.3499 14.3516 25.415 13.9609C25.4964 13.554 25.5371 13.1471 25.5371 12.7402C25.5371 12.5286 25.5127 12.3171 25.4639 12.1055C25.4313 11.8776 25.3499 11.6742 25.2197 11.4951L25.1953 11.3486C25.1953 11.251 25.2279 11.1696 25.293 11.1045C25.3743 11.0394 25.4313 10.9661 25.4639 10.8848C25.3825 10.6732 25.3499 10.4535 25.3662 10.2256C25.3988 9.99772 25.415 9.76986 25.415 9.54199C25.415 9.41178 25.3988 9.27344 25.3662 9.12695C25.3337 8.98047 25.2523 8.86654 25.1221 8.78516C25.2686 8.6224 25.3743 8.41081 25.4395 8.15039C25.5046 7.88997 25.5452 7.61328 25.5615 7.32031C25.5941 7.02734 25.6104 6.74251 25.6104 6.46582C25.6104 6.17285 25.6266 5.92871 25.6592 5.7334C25.8057 5.57064 25.9684 5.43229 26.1475 5.31836C26.3428 5.18815 26.5544 5.12305 26.7822 5.12305C27.0752 5.12305 27.2868 5.22884 27.417 5.44043C27.5472 5.63574 27.6449 5.87988 27.71 6.17285C27.7751 6.44954 27.8239 6.73438 27.8564 7.02734C27.9053 7.32031 27.9867 7.55632 28.1006 7.73535ZM50.3662 19.5273C50.3662 19.9017 50.3174 20.2516 50.2197 20.5771C50.1221 20.8864 50.0163 21.2201 49.9023 21.5781L49.7803 21.9688C49.6663 22.1803 49.5036 22.4001 49.292 22.6279C49.0967 22.8558 48.9176 23.0592 48.7549 23.2383C48.3805 23.6615 48.0062 24.0928 47.6318 24.5322C47.2575 24.9554 46.9238 25.4111 46.6309 25.8994H46.582C46.5332 25.8994 46.4844 25.9157 46.4355 25.9482C46.403 25.9808 46.3704 26.0215 46.3379 26.0703C46.3053 26.1029 46.2728 26.1354 46.2402 26.168C46.2077 26.1842 46.1589 26.1842 46.0938 26.168C45.9798 26.4447 45.7926 26.6562 45.5322 26.8027C45.2881 26.9329 45.0684 27.0957 44.873 27.291C44.8568 27.4212 44.8242 27.5352 44.7754 27.6328C44.7266 27.7142 44.7021 27.8118 44.7021 27.9258C44.1162 28.2676 43.5628 28.6582 43.042 29.0977C42.5374 29.5534 42.041 30.001 41.5527 30.4404C41.2435 30.5218 40.9912 30.652 40.7959 30.8311C40.6169 31.0101 40.4297 31.2054 40.2344 31.417C39.8112 31.6286 39.388 31.8564 38.9648 32.1006C38.5579 32.3447 38.1917 32.6458 37.8662 33.0039C37.4919 33.1016 37.1338 33.2562 36.792 33.4678C36.4665 33.6794 36.1328 33.891 35.791 34.1025C35.6934 34.1676 35.5876 34.2165 35.4736 34.249C35.376 34.2979 35.2702 34.3467 35.1562 34.3955C35.0423 34.4443 34.9854 34.5257 34.9854 34.6396H34.8877C34.7575 34.6396 34.6598 34.6803 34.5947 34.7617C34.5459 34.8431 34.4401 34.8757 34.2773 34.8594C34.0983 35.0384 33.8949 35.1768 33.667 35.2744L32.9834 35.5918C32.7555 35.7057 32.5277 35.8197 32.2998 35.9336C32.0882 36.0638 31.901 36.2266 31.7383 36.4219C31.4616 36.4544 31.2093 36.5358 30.9814 36.666C30.7699 36.7962 30.5257 36.8613 30.249 36.8613H30.1514C30.0537 36.7474 29.9398 36.6416 29.8096 36.5439C29.6956 36.4626 29.5817 36.373 29.4678 36.2754C29.3701 36.194 29.2806 36.0882 29.1992 35.958C29.1341 35.8441 29.1016 35.6895 29.1016 35.4941V35.3721C29.8665 35.0628 30.5094 34.6234 31.0303 34.0537C31.0628 34.0537 31.0872 34.0456 31.1035 34.0293C31.1198 34.0293 31.1442 34.0293 31.1768 34.0293C31.2581 34.0293 31.3314 34.0374 31.3965 34.0537C31.4616 34.0863 31.5267 34.1025 31.5918 34.1025C31.6243 34.1025 31.6732 34.0863 31.7383 34.0537C32.0964 33.9398 32.4382 33.7852 32.7637 33.5898C33.1055 33.3945 33.431 33.1911 33.7402 32.9795C34.0658 32.7842 34.3913 32.5889 34.7168 32.3936C35.0423 32.2145 35.3841 32.068 35.7422 31.9541C36.263 31.5309 36.8001 31.124 37.3535 30.7334C37.9069 30.3428 38.4928 29.9928 39.1113 29.6836C39.1602 29.5534 39.2171 29.4476 39.2822 29.3662C39.3636 29.3011 39.388 29.1953 39.3555 29.0488C39.388 29.0651 39.4287 29.0732 39.4775 29.0732C39.6077 29.0732 39.7135 29.0407 39.7949 28.9756C40.0553 28.7965 40.2995 28.6094 40.5273 28.4141C40.7715 28.2025 41.0075 27.999 41.2354 27.8037C41.7236 27.3805 42.2201 26.9492 42.7246 26.5098C43.2292 26.0703 43.7419 25.6634 44.2627 25.2891C44.2952 25.1263 44.3604 25.0042 44.458 24.9229C44.5557 24.8252 44.6045 24.6868 44.6045 24.5078C44.8161 24.4264 44.9788 24.2962 45.0928 24.1172C45.223 23.9219 45.4102 23.7917 45.6543 23.7266C45.7845 23.4661 45.9229 23.222 46.0693 22.9941C46.2158 22.7663 46.4274 22.6035 46.7041 22.5059C46.8018 22.2454 46.9076 22.0094 47.0215 21.7979C47.1517 21.5863 47.2656 21.3828 47.3633 21.1875C47.4772 20.9759 47.5749 20.7562 47.6562 20.5283C47.7376 20.3005 47.7783 20.0238 47.7783 19.6982C47.7783 19.3402 47.6644 19.096 47.4365 18.9658C47.2087 18.8193 46.9401 18.7217 46.6309 18.6729C46.3216 18.624 45.9961 18.5833 45.6543 18.5508C45.3288 18.5182 45.0684 18.4368 44.873 18.3066C44.7754 18.3229 44.7347 18.388 44.751 18.502C44.7835 18.6159 44.7673 18.6891 44.7021 18.7217H44.458C44.2464 18.7217 44.0348 18.7542 43.8232 18.8193L43.2129 18.9902C43.0176 19.0391 42.8141 19.0879 42.6025 19.1367C42.391 19.1855 42.1794 19.2018 41.9678 19.1855C41.6585 19.3483 41.3818 19.4948 41.1377 19.625C40.9098 19.7552 40.6738 19.8773 40.4297 19.9912C40.2018 20.1051 39.9495 20.2109 39.6729 20.3086C39.4124 20.4062 39.1032 20.4958 38.7451 20.5771C38.5661 20.6097 38.4521 20.6667 38.4033 20.748C38.3545 20.8294 38.265 20.9108 38.1348 20.9922C38.0534 20.9434 37.9801 20.8864 37.915 20.8213C37.8499 20.7399 37.7767 20.6829 37.6953 20.6504C37.6139 20.6667 37.5407 20.7155 37.4756 20.7969C37.4268 20.862 37.3779 20.9352 37.3291 21.0166C37.2803 21.0817 37.2314 21.1468 37.1826 21.2119C37.1338 21.2607 37.0768 21.2852 37.0117 21.2852C36.8652 21.2852 36.7269 21.2445 36.5967 21.1631C36.4827 21.0654 36.377 20.9596 36.2793 20.8457C36.1816 20.7318 36.084 20.6178 35.9863 20.5039C35.8887 20.3737 35.7829 20.2842 35.6689 20.2354C35.734 20.0726 35.7666 19.9098 35.7666 19.7471C35.7666 19.568 35.7585 19.4053 35.7422 19.2588C35.9375 19.0472 36.1165 18.8356 36.2793 18.624C36.4421 18.4124 36.6455 18.2497 36.8896 18.1357C37.3291 17.6149 37.736 17.1266 38.1104 16.6709C38.4847 16.1989 38.8102 15.7188 39.0869 15.2305C39.3799 14.7259 39.6159 14.1969 39.7949 13.6436C39.9902 13.0739 40.1123 12.431 40.1611 11.7148C40.1611 11.6009 40.1855 11.5114 40.2344 11.4463C40.2995 11.3812 40.332 11.2998 40.332 11.2021C40.332 11.0394 40.2995 10.901 40.2344 10.7871C40.1855 10.6732 40.1204 10.5755 40.0391 10.4941C39.974 10.3965 39.9089 10.2988 39.8438 10.2012C39.7949 10.1035 39.7786 9.97331 39.7949 9.81055C39.5345 9.58268 39.2415 9.46875 38.916 9.46875C38.7858 9.46875 38.6393 9.5013 38.4766 9.56641C38.3138 9.63151 38.1429 9.70475 37.9639 9.78613C37.8011 9.86751 37.6383 9.96517 37.4756 10.0791C37.3128 10.1768 37.1826 10.2581 37.085 10.3232C36.9873 10.3883 36.8896 10.4616 36.792 10.543C36.7106 10.6081 36.6292 10.6732 36.5479 10.7383C36.1735 11.0638 35.8073 11.3812 35.4492 11.6904C35.1074 11.9997 34.7738 12.3252 34.4482 12.667V13.1309C34.3018 13.1634 34.1797 13.2285 34.082 13.3262C34.0007 13.4238 33.9355 13.5459 33.8867 13.6924C33.8379 13.8226 33.7972 13.9691 33.7646 14.1318C33.7321 14.2783 33.6914 14.4085 33.6426 14.5225L33.667 14.5957V14.6445C33.667 14.6608 33.6507 14.6689 33.6182 14.6689C33.6019 14.6689 33.5775 14.6608 33.5449 14.6445C33.5124 14.612 33.4798 14.5957 33.4473 14.5957H33.3984C33.2682 14.9701 33.0485 15.2549 32.7393 15.4502C32.4463 15.6455 32.1452 15.8327 31.8359 16.0117C31.5267 15.9303 31.2419 15.8083 30.9814 15.6455C30.7373 15.4827 30.4932 15.3118 30.249 15.1328C30.1351 14.9049 30.0781 14.6445 30.0781 14.3516C30.0781 14.0586 30.1188 13.7819 30.2002 13.5215C30.2816 13.2448 30.3548 12.96 30.4199 12.667C30.6641 12.4717 30.8675 12.2438 31.0303 11.9834C31.193 11.723 31.3558 11.4626 31.5186 11.2021C31.6976 10.9417 31.8848 10.7057 32.0801 10.4941C32.2917 10.2663 32.5602 10.0954 32.8857 9.98145C33.0485 9.72103 33.252 9.49316 33.4961 9.29785C33.7402 9.08626 33.9925 8.89909 34.2529 8.73633C34.5296 8.55729 34.7982 8.37826 35.0586 8.19922C35.319 8.02018 35.5469 7.81673 35.7422 7.58887H36.2061C36.2549 7.42611 36.3525 7.31217 36.499 7.24707C36.6455 7.16569 36.792 7.10059 36.9385 7.05176C37.1012 6.98665 37.2477 6.91341 37.3779 6.83203C37.5081 6.73438 37.5814 6.57975 37.5977 6.36816C37.6628 6.35189 37.6953 6.38444 37.6953 6.46582C37.8418 6.41699 38.0046 6.39258 38.1836 6.39258C38.3952 6.39258 38.5986 6.41699 38.7939 6.46582C39.0055 6.51465 39.209 6.53906 39.4043 6.53906C39.5671 6.53906 39.7217 6.51465 39.8682 6.46582C39.8844 6.56348 39.9251 6.63672 39.9902 6.68555C40.0716 6.7181 40.1611 6.75065 40.2588 6.7832C40.3727 6.79948 40.4785 6.81576 40.5762 6.83203C40.6901 6.83203 40.7796 6.85645 40.8447 6.90527C40.8285 7.06803 40.8773 7.16569 40.9912 7.19824C41.1214 7.21452 41.2191 7.26335 41.2842 7.34473C41.3493 7.42611 41.3818 7.52376 41.3818 7.6377C41.3981 7.75163 41.4551 7.85742 41.5527 7.95508L41.8213 8.24805C41.9189 8.32943 42.0085 8.42708 42.0898 8.54102C42.3828 8.94792 42.6107 9.45247 42.7734 10.0547C42.9362 10.6569 43.0176 11.2103 43.0176 11.7148C43.0176 11.7474 43.0013 11.8451 42.9688 12.0078C42.9362 12.1543 42.9118 12.2438 42.8955 12.2764C42.7165 13.1064 42.4561 13.8877 42.1143 14.6201C41.7725 15.3363 41.4062 16.0605 41.0156 16.793C41.1133 16.8092 41.2028 16.8255 41.2842 16.8418C41.3818 16.8418 41.4714 16.8418 41.5527 16.8418C41.9108 16.8418 42.2363 16.793 42.5293 16.6953C42.8385 16.5977 43.1559 16.4837 43.4814 16.3535C43.6442 16.4023 43.8232 16.4268 44.0186 16.4268C44.2952 16.4268 44.5557 16.4023 44.7998 16.3535C45.0602 16.3047 45.3288 16.2803 45.6055 16.2803C45.752 16.2803 45.8903 16.3128 46.0205 16.3779C46.167 16.443 46.3298 16.4756 46.5088 16.4756C46.6715 16.4756 46.7936 16.4674 46.875 16.4512C47.1354 16.5814 47.4121 16.7116 47.7051 16.8418C48.0143 16.972 48.3073 17.1104 48.584 17.2568C48.877 17.4033 49.1455 17.5742 49.3896 17.7695C49.6501 17.9486 49.8779 18.1602 50.0732 18.4043C50.1058 18.4368 50.1465 18.4938 50.1953 18.5752C50.2441 18.6403 50.2767 18.6891 50.293 18.7217C50.3255 18.7868 50.3418 18.917 50.3418 19.1123C50.3581 19.3076 50.3662 19.446 50.3662 19.5273ZM87.9639 35.3232C87.9639 35.4697 87.9069 35.5999 87.793 35.7139C87.6953 35.8278 87.5732 35.9173 87.4268 35.9824C87.2803 36.0638 87.1257 36.137 86.9629 36.2021C86.8164 36.2673 86.6862 36.3242 86.5723 36.373C86.3932 36.2754 86.2061 36.2103 86.0107 36.1777C85.8317 36.1452 85.6689 36.0638 85.5225 35.9336H85.3516C85.0911 35.9336 84.8877 35.9661 84.7412 36.0312C84.5133 35.9499 84.3262 35.8278 84.1797 35.665C84.0332 35.5186 83.8949 35.3558 83.7646 35.1768C83.6344 35.014 83.5042 34.8512 83.374 34.6885C83.2438 34.5257 83.0811 34.3874 82.8857 34.2734C82.5928 33.4596 82.3324 32.6377 82.1045 31.8076C81.8766 30.9775 81.7057 30.1312 81.5918 29.2686C81.6243 29.1872 81.6488 29.0977 81.665 29C81.6813 28.9023 81.6895 28.8128 81.6895 28.7314C81.6895 28.6663 81.6732 28.6012 81.6406 28.5361C81.6243 28.4548 81.5755 28.4059 81.4941 28.3896C81.5755 28.2594 81.6243 28.113 81.6406 27.9502C81.6732 27.7712 81.6895 27.6084 81.6895 27.4619C81.6895 27.1364 81.6569 26.8678 81.5918 26.6562C81.6895 26.5749 81.7301 26.4447 81.7139 26.2656C81.6976 26.0703 81.7383 25.932 81.8359 25.8506C81.7546 25.5739 81.7139 25.3053 81.7139 25.0449C81.7139 24.6868 81.7546 24.3369 81.8359 23.9951C81.9336 23.6533 81.9824 23.3034 81.9824 22.9453C81.9824 22.8639 81.9743 22.7826 81.958 22.7012C81.958 22.6198 81.9499 22.5384 81.9336 22.457C82.015 22.1966 82.0882 21.9362 82.1533 21.6758C82.2347 21.3991 82.2754 21.1224 82.2754 20.8457C82.2754 20.6504 82.2428 20.4876 82.1777 20.3574C82.3893 19.6087 82.5358 18.8682 82.6172 18.1357C82.7148 17.387 82.8044 16.6302 82.8857 15.8652C82.8695 15.8327 82.8532 15.8083 82.8369 15.792C82.8206 15.7757 82.8125 15.7513 82.8125 15.7188C82.8125 15.6374 82.8532 15.5723 82.9346 15.5234C83.0322 15.4746 83.0729 15.3851 83.0566 15.2549C82.8613 15.4502 82.6986 15.6781 82.5684 15.9385C82.4544 16.1989 82.3405 16.4593 82.2266 16.7197C82.1289 16.9801 82.015 17.2406 81.8848 17.501C81.7708 17.7451 81.6162 17.9648 81.4209 18.1602C81.4046 18.3392 81.3477 18.5101 81.25 18.6729C81.1686 18.8356 81.1279 19.0146 81.1279 19.21C81.1117 19.21 81.0954 19.21 81.0791 19.21C81.0628 19.1937 81.0384 19.1855 81.0059 19.1855C80.9408 19.1855 80.8919 19.2262 80.8594 19.3076C80.8431 19.389 80.7943 19.4134 80.7129 19.3809C80.3385 20.1133 79.9235 20.8294 79.4678 21.5293C79.0283 22.2292 78.4505 22.7907 77.7344 23.2139C77.6042 23.165 77.4821 23.1406 77.3682 23.1406C77.1566 23.1406 76.945 23.2057 76.7334 23.3359C76.5381 23.4499 76.4079 23.5068 76.3428 23.5068C76.18 23.5068 75.9766 23.4255 75.7324 23.2627C75.5046 23.0837 75.2686 22.986 75.0244 22.9697C74.764 22.7907 74.5443 22.6117 74.3652 22.4326C74.2025 22.2373 73.9502 22.1234 73.6084 22.0908C73.3805 21.749 73.1527 21.4235 72.9248 21.1143C72.7132 20.805 72.5016 20.5039 72.29 20.2109C72.0947 19.9017 71.9157 19.5762 71.7529 19.2344C71.6064 18.8926 71.4925 18.5101 71.4111 18.0869C71.4274 18.0544 71.4355 18.0218 71.4355 17.9893C71.4355 17.8916 71.3867 17.8509 71.2891 17.8672C71.2077 17.8835 71.167 17.8346 71.167 17.7207V17.5498C71.167 17.4196 71.1426 17.3057 71.0938 17.208C71.0612 17.0941 71.0531 16.972 71.0693 16.8418C70.9554 16.6628 70.8659 16.4756 70.8008 16.2803C70.7357 16.085 70.6217 15.9141 70.459 15.7676V15.5479C70.459 15.4502 70.4508 15.3607 70.4346 15.2793C70.4346 15.1816 70.4102 15.1003 70.3613 15.0352C70.3288 14.9538 70.2718 14.9049 70.1904 14.8887C70.1742 14.3027 70.0521 13.7087 69.8242 13.1064C69.6126 12.488 69.4173 11.8939 69.2383 11.3242C69.1081 11.7474 69.0104 12.1787 68.9453 12.6182C68.8802 13.0413 68.8477 13.4727 68.8477 13.9121V14.3271C68.8477 14.4574 68.8639 14.5876 68.8965 14.7178C68.8477 14.7992 68.7744 14.8561 68.6768 14.8887C68.5954 14.9212 68.5465 14.9863 68.5303 15.084C68.514 15.1654 68.5059 15.2467 68.5059 15.3281C68.5221 15.4095 68.5221 15.4909 68.5059 15.5723C68.4733 15.9629 68.4245 16.3372 68.3594 16.6953C68.2617 17.2324 68.1478 17.7777 68.0176 18.3311C67.8874 18.8682 67.8223 19.4215 67.8223 19.9912C67.8223 20.0238 67.8223 20.0726 67.8223 20.1377C67.8385 20.1865 67.8467 20.2272 67.8467 20.2598C67.5863 20.4876 67.4479 20.7725 67.4316 21.1143C67.4154 21.4561 67.3747 21.7816 67.3096 22.0908C67.2282 22.5465 67.1305 23.0023 67.0166 23.458C66.9027 23.8975 66.805 24.3532 66.7236 24.8252C66.6748 25.0856 66.6341 25.346 66.6016 25.6064C66.569 25.8506 66.5365 26.1029 66.5039 26.3633C66.4876 26.5098 66.4307 26.6318 66.333 26.7295C66.2516 26.8271 66.1947 26.9411 66.1621 27.0713C66.1458 27.1852 66.1377 27.3154 66.1377 27.4619C66.154 27.5921 66.1621 27.7142 66.1621 27.8281C66.1621 28.0234 66.1458 28.2106 66.1133 28.3896C66.0807 28.5524 65.9831 28.6989 65.8203 28.8291C65.8529 29.2523 65.9261 29.6104 66.04 29.9033C66.154 30.2126 66.2842 30.5544 66.4307 30.9287H67.041V31.0264C67.041 31.1891 67.0654 31.3356 67.1143 31.4658C67.1794 31.596 67.3014 31.653 67.4805 31.6367C67.4642 31.7018 67.4561 31.7832 67.4561 31.8809C67.4561 32.0273 67.4805 32.1576 67.5293 32.2715C67.5944 32.4017 67.6432 32.54 67.6758 32.6865C67.3503 33.2236 67.0003 33.6224 66.626 33.8828C66.2516 34.1432 65.7389 34.2734 65.0879 34.2734H64.6973C64.6159 34.013 64.5182 33.7607 64.4043 33.5166C64.2904 33.2725 64.1764 33.0283 64.0625 32.7842C63.9648 32.54 63.8753 32.2878 63.7939 32.0273C63.7288 31.7832 63.6963 31.5228 63.6963 31.2461C63.6963 31.181 63.7044 31.1159 63.7207 31.0508C63.737 31.002 63.7451 30.945 63.7451 30.8799C63.7451 30.7985 63.7126 30.7497 63.6475 30.7334C63.5824 30.7171 63.5498 30.6357 63.5498 30.4893C63.5498 30.3753 63.5417 30.2695 63.5254 30.1719C63.5254 30.0742 63.5254 29.9684 63.5254 29.8545C63.5254 29.3174 63.5661 28.7884 63.6475 28.2676C63.7288 27.7305 63.7858 27.1934 63.8184 26.6562C63.8997 26.5749 63.9404 26.4691 63.9404 26.3389C63.9404 26.2087 63.9811 26.1029 64.0625 26.0215V25.8506C64.0625 25.5576 64.0951 25.2646 64.1602 24.9717C64.2253 24.6787 64.2985 24.3939 64.3799 24.1172C64.4613 23.8405 64.5345 23.5557 64.5996 23.2627C64.6647 22.9697 64.6973 22.6768 64.6973 22.3838V21.9932C64.6973 21.8792 64.7461 21.8304 64.8438 21.8467C64.9577 21.8467 65.0228 21.7816 65.0391 21.6514C65.0716 21.4235 65.0879 21.2038 65.0879 20.9922C65.1042 20.7643 65.1286 20.5365 65.1611 20.3086C65.2425 19.8691 65.332 19.4297 65.4297 18.9902C65.5273 18.5345 65.5762 18.0788 65.5762 17.623V17.5498C65.5762 17.501 65.6169 17.4033 65.6982 17.2568C65.7796 17.0941 65.8203 16.9395 65.8203 16.793C65.8203 16.679 65.7959 16.5732 65.7471 16.4756C65.7633 16.4919 65.7959 16.5 65.8447 16.5C65.9098 16.5 65.9505 16.4837 65.9668 16.4512C65.9993 16.4023 66.04 16.3617 66.0889 16.3291C66.04 16.264 66.0156 16.1989 66.0156 16.1338C66.0156 16.0524 66.0238 15.9792 66.04 15.9141C66.0726 15.8327 66.0889 15.7513 66.0889 15.6699C66.0889 15.556 66.0319 15.4746 65.918 15.4258C66.1133 15.0677 66.2516 14.6852 66.333 14.2783C66.4307 13.8714 66.4958 13.4564 66.5283 13.0332C66.5771 12.61 66.6178 12.1868 66.6504 11.7637C66.6829 11.3242 66.7562 10.9092 66.8701 10.5186C66.8376 10.4209 66.8132 10.3151 66.7969 10.2012C66.7969 10.0872 66.7969 9.98145 66.7969 9.88379C66.7969 9.81868 66.7887 9.75358 66.7725 9.68848C66.7562 9.6071 66.7643 9.53385 66.7969 9.46875C66.7969 9.4362 66.805 9.39551 66.8213 9.34668L66.8701 9.2002C66.9027 9.08626 66.9189 8.97233 66.9189 8.8584C66.9352 8.72819 66.9515 8.59798 66.9678 8.46777C67.0003 8.09342 67.0085 7.71094 66.9922 7.32031C66.9922 6.92969 67.0085 6.53906 67.041 6.14844C66.9922 6.08333 66.9434 6.03451 66.8945 6.00195C66.8457 5.95312 66.8132 5.88802 66.7969 5.80664C66.9271 5.57878 67.0654 5.36719 67.2119 5.17188C67.3747 4.96029 67.5863 4.79753 67.8467 4.68359C67.8955 4.86263 68.0257 4.95215 68.2373 4.95215C68.335 4.95215 68.457 4.92773 68.6035 4.87891C68.75 4.83008 68.8477 4.76497 68.8965 4.68359C69.1732 4.78125 69.4499 4.83008 69.7266 4.83008C70.0195 4.8138 70.2881 4.87891 70.5322 5.02539C70.5811 5.26953 70.6462 5.52181 70.7275 5.78223C70.8089 6.04264 70.9229 6.27865 71.0693 6.49023C71.1019 6.70182 71.1344 6.96224 71.167 7.27148C71.1995 7.56445 71.2321 7.8737 71.2646 8.19922C71.2972 8.50846 71.346 8.80957 71.4111 9.10254C71.4762 9.37923 71.5658 9.59896 71.6797 9.76172C71.696 10.0547 71.7448 10.3477 71.8262 10.6406C71.9076 10.9336 71.9971 11.2184 72.0947 11.4951C72.1924 11.7555 72.2738 11.9997 72.3389 12.2275C72.4202 12.4554 72.4609 12.6426 72.4609 12.7891C72.4609 12.9193 72.4365 13.0088 72.3877 13.0576C72.3551 13.0902 72.3226 13.1553 72.29 13.2529C72.3551 13.432 72.4447 13.5866 72.5586 13.7168C72.6725 13.8307 72.7946 13.9691 72.9248 14.1318C73.1689 15.0596 73.4863 15.9629 73.877 16.8418C74.2676 17.7207 74.7396 18.5671 75.293 19.3809C75.4395 19.3971 75.5534 19.4378 75.6348 19.5029C75.7324 19.568 75.8789 19.5843 76.0742 19.5518V19.7227C76.0742 19.8854 76.1068 19.9993 76.1719 20.0645C76.3184 20.1621 76.4893 20.2109 76.6846 20.2109C76.8962 20.2109 77.0589 20.154 77.1729 20.04C77.3031 19.9098 77.4251 19.7633 77.5391 19.6006C77.653 19.4378 77.7669 19.2832 77.8809 19.1367C77.9948 18.9902 78.1494 18.8926 78.3447 18.8438V18.7949C78.3447 18.6647 78.3691 18.5589 78.418 18.4775C78.4831 18.3799 78.5156 18.2741 78.5156 18.1602C78.6947 18.0299 78.833 17.8672 78.9307 17.6719C79.0283 17.4766 79.1178 17.2812 79.1992 17.0859C79.2806 16.8743 79.3701 16.679 79.4678 16.5C79.5817 16.321 79.7282 16.1745 79.9072 16.0605C80.1351 15.3607 80.4118 14.7096 80.7373 14.1074C81.0628 13.5052 81.4046 12.8949 81.7627 12.2764C81.7627 12.2275 81.7546 12.1787 81.7383 12.1299C81.722 12.0648 81.7139 12.0078 81.7139 11.959C81.7139 11.9427 81.7301 11.8695 81.7627 11.7393C81.8441 11.5765 81.9173 11.4219 81.9824 11.2754C82.0475 11.1289 82.1045 10.9661 82.1533 10.7871C82.3161 10.2826 82.4626 9.78613 82.5928 9.29785C82.7393 8.80957 82.9508 8.3457 83.2275 7.90625V7.2959C83.5205 6.70996 83.724 6.09147 83.8379 5.44043C83.9681 4.78939 84.1227 4.15462 84.3018 3.53613C84.3343 3.3571 84.3913 3.17806 84.4727 2.99902C84.5703 2.80371 84.6842 2.66536 84.8145 2.58398C84.7656 2.48633 84.7412 2.38867 84.7412 2.29102C84.7412 2.16081 84.7575 2.04688 84.79 1.94922C84.8389 1.83529 84.8796 1.72135 84.9121 1.60742C84.8633 1.49349 84.8389 1.34701 84.8389 1.16797C84.8389 0.940104 84.904 0.728516 85.0342 0.533203C85.1644 0.321615 85.3597 0.183268 85.6201 0.118164C85.7829 0.166992 85.9212 0.248372 86.0352 0.362305C86.1491 0.476237 86.2549 0.598307 86.3525 0.728516C86.4665 0.842448 86.5804 0.940104 86.6943 1.02148C86.8245 1.08659 86.9873 1.10286 87.1826 1.07031C87.3128 1.31445 87.4023 1.57487 87.4512 1.85156C87.5 2.11198 87.5244 2.38053 87.5244 2.65723C87.5244 3.03158 87.4919 3.4222 87.4268 3.8291C87.3617 4.21973 87.3372 4.61849 87.3535 5.02539C87.2233 5.28581 87.1257 5.57064 87.0605 5.87988C87.0117 6.17285 86.9629 6.47396 86.9141 6.7832C86.8652 7.09245 86.8083 7.39355 86.7432 7.68652C86.6781 7.97949 86.5641 8.25618 86.4014 8.5166C86.3525 9.24902 86.2956 9.96517 86.2305 10.665C86.1816 11.3649 86.1003 12.0648 85.9863 12.7646L85.7666 14.1562C85.734 14.2702 85.7015 14.4004 85.6689 14.5469C85.6364 14.6771 85.6201 14.791 85.6201 14.8887C85.6201 14.9863 85.6283 15.0921 85.6445 15.2061C85.6608 15.3037 85.7096 15.377 85.791 15.4258C85.6771 15.5885 85.5957 15.7839 85.5469 16.0117C85.498 16.2396 85.4492 16.4837 85.4004 16.7441L85.2783 17.501C85.2458 17.7451 85.1807 17.9648 85.083 18.1602V18.4287C85.083 19.0798 84.9691 19.7471 84.7412 20.4307V20.5527C84.7412 20.6341 84.7331 20.7074 84.7168 20.7725C84.7168 20.8213 84.7168 20.8864 84.7168 20.9678C84.7168 21.0817 84.7493 21.1712 84.8145 21.2363C84.6842 21.6595 84.5622 22.099 84.4482 22.5547C84.3343 22.9941 84.2529 23.4499 84.2041 23.9219C84.1553 24.5566 84.1471 25.2077 84.1797 25.875C84.2122 26.526 84.1309 27.1608 83.9355 27.7793C84.0332 28.0723 84.0983 28.3896 84.1309 28.7314L84.2285 29.7568C84.2611 30.0986 84.3099 30.4242 84.375 30.7334C84.4564 31.0589 84.6029 31.3275 84.8145 31.5391C84.8307 31.5716 84.8389 31.6204 84.8389 31.6855C84.8389 31.8158 84.8063 31.9134 84.7412 31.9785C84.7738 32.1413 84.8307 32.2796 84.9121 32.3936C84.9935 32.5075 85.0749 32.6133 85.1562 32.7109C85.2376 32.8249 85.3027 32.9469 85.3516 33.0771C85.4167 33.2074 85.4492 33.3701 85.4492 33.5654C85.5794 33.7445 85.7829 33.8828 86.0596 33.9805C86.3363 34.0781 86.613 34.1758 86.8896 34.2734C87.1826 34.3711 87.4349 34.4932 87.6465 34.6396C87.8581 34.8024 87.9639 35.0303 87.9639 35.3232ZM104.736 13.4727V13.5703C104.622 13.6029 104.565 13.6842 104.565 13.8145C104.386 13.8958 104.199 13.9609 104.004 14.0098C103.809 14.0423 103.621 14.0993 103.442 14.1807C103.263 14.1644 103.076 14.1562 102.881 14.1562C102.702 14.14 102.523 14.1318 102.344 14.1318C101.855 14.1318 101.367 14.1481 100.879 14.1807C100.391 14.2132 99.9023 14.2132 99.4141 14.1807C99.1862 14.3109 98.9339 14.4167 98.6572 14.498C98.3968 14.5632 98.1445 14.5957 97.9004 14.5957C97.7051 14.5957 97.5342 14.5713 97.3877 14.5225C96.9971 14.7178 96.5658 14.8805 96.0938 15.0107C95.638 15.141 95.1742 15.2712 94.7021 15.4014C94.2301 15.5153 93.7744 15.6536 93.335 15.8164C92.9118 15.9629 92.5374 16.1745 92.2119 16.4512C92.1794 16.679 92.1549 16.9069 92.1387 17.1348C92.1224 17.3464 92.1143 17.5579 92.1143 17.7695C92.1143 17.9974 92.1224 18.209 92.1387 18.4043C92.1712 18.5996 92.2282 18.7949 92.3096 18.9902C92.391 19.0228 92.4805 19.0472 92.5781 19.0635C92.6921 19.0798 92.7897 19.0879 92.8711 19.0879C92.9525 19.0879 93.0339 19.0798 93.1152 19.0635C93.1966 19.0309 93.2536 18.974 93.2861 18.8926C93.5303 18.86 93.7744 18.8519 94.0186 18.8682C94.2627 18.8682 94.5068 18.8682 94.751 18.8682C94.9951 18.8682 95.2311 18.86 95.459 18.8438C95.7031 18.8275 95.9391 18.7868 96.167 18.7217C96.4274 18.6566 96.6797 18.6159 96.9238 18.5996C97.1842 18.5833 97.4365 18.5671 97.6807 18.5508C97.9248 18.5345 98.1771 18.5101 98.4375 18.4775C98.6979 18.4287 98.9665 18.3392 99.2432 18.209C99.4548 18.2904 99.6663 18.3311 99.8779 18.3311C100.106 18.3311 100.326 18.3473 100.537 18.3799C100.651 18.4613 100.741 18.5508 100.806 18.6484C100.887 18.7461 100.928 18.86 100.928 18.9902C100.928 19.2181 100.846 19.446 100.684 19.6738C100.521 19.9017 100.391 20.1133 100.293 20.3086H100.024C99.6338 20.3086 99.2513 20.3656 98.877 20.4795C98.5189 20.5771 98.1527 20.6992 97.7783 20.8457C97.4202 20.9759 97.054 21.098 96.6797 21.2119C96.3216 21.3096 95.9473 21.3584 95.5566 21.3584C95.4915 21.3584 95.4508 21.3991 95.4346 21.4805C95.4346 21.5456 95.4183 21.5944 95.3857 21.627C95.3044 21.6107 95.1823 21.6025 95.0195 21.6025C94.6452 21.6025 94.2871 21.6432 93.9453 21.7246C93.6035 21.806 93.2536 21.8467 92.8955 21.8467C92.7979 21.8467 92.7002 21.8467 92.6025 21.8467C92.5049 21.8304 92.4072 21.8141 92.3096 21.7979C92.2282 21.9281 92.1224 22.0176 91.9922 22.0664C91.862 22.099 91.7399 22.1641 91.626 22.2617C91.5771 22.4082 91.5446 22.5872 91.5283 22.7988C91.5283 23.0104 91.5202 23.2301 91.5039 23.458C91.5039 23.6696 91.4876 23.873 91.4551 24.0684C91.4225 24.2637 91.3574 24.4183 91.2598 24.5322C91.276 24.6136 91.3411 24.6462 91.4551 24.6299C91.569 24.5973 91.626 24.6462 91.626 24.7764C91.626 24.9229 91.6097 25.0775 91.5771 25.2402C91.5446 25.403 91.5283 25.5658 91.5283 25.7285C91.5283 26.0378 91.5609 26.3796 91.626 26.7539C91.7074 27.112 91.8213 27.4456 91.9678 27.7549C92.1305 28.0641 92.3421 28.3245 92.6025 28.5361C92.863 28.7314 93.1885 28.8291 93.5791 28.8291C93.8395 28.8291 94.0837 28.7803 94.3115 28.6826C94.5394 28.585 94.7266 28.4222 94.873 28.1943L94.9951 28.1699C95.0602 28.1699 95.1172 28.1781 95.166 28.1943C95.2311 28.2106 95.2962 28.2188 95.3613 28.2188C95.459 28.2188 95.5811 28.1618 95.7275 28.0479C95.8903 27.9176 96.0612 27.7712 96.2402 27.6084C96.4355 27.4456 96.6309 27.291 96.8262 27.1445C97.0215 26.9818 97.2087 26.8678 97.3877 26.8027C97.5016 26.5749 97.6074 26.347 97.7051 26.1191C97.819 25.8913 97.9818 25.7122 98.1934 25.582V24.874C98.3561 24.695 98.527 24.5322 98.7061 24.3857C98.9014 24.2393 99.0479 24.0521 99.1455 23.8242C99.2269 23.8568 99.3001 23.8812 99.3652 23.8975C99.4466 23.9137 99.528 23.9219 99.6094 23.9219C99.6908 23.9219 99.7721 23.9137 99.8535 23.8975C99.9512 23.8812 100.041 23.8568 100.122 23.8242C100.252 24.0033 100.35 24.2067 100.415 24.4346C100.496 24.6462 100.594 24.8496 100.708 25.0449C100.562 25.3379 100.391 25.6878 100.195 26.0947C100 26.5016 99.7884 26.9085 99.5605 27.3154C99.3327 27.7223 99.0885 28.113 98.8281 28.4873C98.584 28.8454 98.3398 29.1221 98.0957 29.3174C98.0469 29.3662 97.9411 29.4232 97.7783 29.4883C97.5993 29.6185 97.4365 29.7406 97.29 29.8545C97.1436 29.9847 97.0052 30.1312 96.875 30.2939C96.403 30.4404 95.9473 30.6357 95.5078 30.8799C95.0846 31.124 94.6615 31.36 94.2383 31.5879C94.043 31.5391 93.8314 31.5146 93.6035 31.5146C93.4082 31.5146 93.2129 31.5228 93.0176 31.5391C92.8223 31.5716 92.6107 31.5879 92.3828 31.5879C92.3177 31.5065 92.2201 31.4495 92.0898 31.417C91.9759 31.4007 91.9352 31.3193 91.9678 31.1729C91.4144 31.1403 90.9668 30.9857 90.625 30.709C90.2832 30.4486 89.9902 30.123 89.7461 29.7324C89.5182 29.3418 89.3311 28.9186 89.1846 28.4629C89.0381 28.0072 88.8835 27.5677 88.7207 27.1445V27.0713C88.7207 26.9899 88.7533 26.9411 88.8184 26.9248C88.8835 26.9085 88.916 26.8597 88.916 26.7783C88.916 26.7458 88.9079 26.7214 88.8916 26.7051C88.8428 26.526 88.8021 26.3714 88.7695 26.2412C88.737 26.111 88.7207 25.9564 88.7207 25.7773C88.7207 25.5169 88.737 25.2646 88.7695 25.0205C88.8021 24.7601 88.8184 24.4997 88.8184 24.2393C88.8184 23.9788 88.7858 23.751 88.7207 23.5557C88.7858 23.4743 88.8428 23.3685 88.8916 23.2383C88.9242 23.0918 88.9486 22.9453 88.9648 22.7988C88.9811 22.6523 88.9893 22.5059 88.9893 22.3594C89.0055 22.2129 89.0299 22.0827 89.0625 21.9688C88.9974 21.7897 88.9404 21.6351 88.8916 21.5049C88.8428 21.3584 88.8184 21.1875 88.8184 20.9922V20.8213C88.9811 20.5446 89.1195 20.2598 89.2334 19.9668C89.3473 19.6738 89.4694 19.3727 89.5996 19.0635V18.9902C89.5996 18.5182 89.5833 18.0462 89.5508 17.5742C89.5182 17.1022 89.502 16.6302 89.502 16.1582V15.6943C89.502 15.5316 89.5101 15.377 89.5264 15.2305C89.6566 15.1654 89.7542 15.0758 89.8193 14.9619C89.8844 14.848 89.9821 14.7585 90.1123 14.6934H90.918L91.0645 14.4492C91.1133 14.3678 91.1458 14.2783 91.1621 14.1807C91.3411 14.1318 91.512 14.0667 91.6748 13.9854C91.8538 13.8877 92.0166 13.79 92.1631 13.6924C92.391 13.5622 92.5944 13.4482 92.7734 13.3506C92.9688 13.2367 93.1559 13.1471 93.335 13.082C93.5303 13.0007 93.7337 12.9355 93.9453 12.8867C94.1569 12.8379 94.401 12.7972 94.6777 12.7646C94.8079 12.7646 94.8893 12.7402 94.9219 12.6914C94.9707 12.6426 95.0358 12.5856 95.1172 12.5205C95.3125 12.5531 95.5078 12.5856 95.7031 12.6182C95.8984 12.6344 96.0938 12.6426 96.2891 12.6426C96.6797 12.6426 97.0459 12.5693 97.3877 12.4229C97.876 12.4229 98.3561 12.4147 98.8281 12.3984C99.3164 12.3822 99.8047 12.374 100.293 12.374C100.716 12.374 101.139 12.3903 101.562 12.4229C101.986 12.4554 102.401 12.5124 102.808 12.5938C102.954 12.5449 103.117 12.5205 103.296 12.5205C103.491 12.5205 103.687 12.5449 103.882 12.5938C104.093 12.6263 104.297 12.6263 104.492 12.5938C104.508 12.7728 104.549 12.9274 104.614 13.0576C104.696 13.1715 104.736 13.3099 104.736 13.4727ZM119.019 13.4727V13.5703C118.905 13.6029 118.848 13.6842 118.848 13.8145C118.669 13.8958 118.481 13.9609 118.286 14.0098C118.091 14.0423 117.904 14.0993 117.725 14.1807C117.546 14.1644 117.358 14.1562 117.163 14.1562C116.984 14.14 116.805 14.1318 116.626 14.1318C116.138 14.1318 115.649 14.1481 115.161 14.1807C114.673 14.2132 114.185 14.2132 113.696 14.1807C113.468 14.3109 113.216 14.4167 112.939 14.498C112.679 14.5632 112.427 14.5957 112.183 14.5957C111.987 14.5957 111.816 14.5713 111.67 14.5225C111.279 14.7178 110.848 14.8805 110.376 15.0107C109.92 15.141 109.456 15.2712 108.984 15.4014C108.512 15.5153 108.057 15.6536 107.617 15.8164C107.194 15.9629 106.82 16.1745 106.494 16.4512C106.462 16.679 106.437 16.9069 106.421 17.1348C106.405 17.3464 106.396 17.5579 106.396 17.7695C106.396 17.9974 106.405 18.209 106.421 18.4043C106.453 18.5996 106.51 18.7949 106.592 18.9902C106.673 19.0228 106.763 19.0472 106.86 19.0635C106.974 19.0798 107.072 19.0879 107.153 19.0879C107.235 19.0879 107.316 19.0798 107.397 19.0635C107.479 19.0309 107.536 18.974 107.568 18.8926C107.812 18.86 108.057 18.8519 108.301 18.8682C108.545 18.8682 108.789 18.8682 109.033 18.8682C109.277 18.8682 109.513 18.86 109.741 18.8438C109.985 18.8275 110.221 18.7868 110.449 18.7217C110.71 18.6566 110.962 18.6159 111.206 18.5996C111.466 18.5833 111.719 18.5671 111.963 18.5508C112.207 18.5345 112.459 18.5101 112.72 18.4775C112.98 18.4287 113.249 18.3392 113.525 18.209C113.737 18.2904 113.949 18.3311 114.16 18.3311C114.388 18.3311 114.608 18.3473 114.819 18.3799C114.933 18.4613 115.023 18.5508 115.088 18.6484C115.169 18.7461 115.21 18.86 115.21 18.9902C115.21 19.2181 115.129 19.446 114.966 19.6738C114.803 19.9017 114.673 20.1133 114.575 20.3086H114.307C113.916 20.3086 113.534 20.3656 113.159 20.4795C112.801 20.5771 112.435 20.6992 112.061 20.8457C111.702 20.9759 111.336 21.098 110.962 21.2119C110.604 21.3096 110.229 21.3584 109.839 21.3584C109.774 21.3584 109.733 21.3991 109.717 21.4805C109.717 21.5456 109.701 21.5944 109.668 21.627C109.587 21.6107 109.465 21.6025 109.302 21.6025C108.927 21.6025 108.569 21.6432 108.228 21.7246C107.886 21.806 107.536 21.8467 107.178 21.8467C107.08 21.8467 106.982 21.8467 106.885 21.8467C106.787 21.8304 106.689 21.8141 106.592 21.7979C106.51 21.9281 106.405 22.0176 106.274 22.0664C106.144 22.099 106.022 22.1641 105.908 22.2617C105.859 22.4082 105.827 22.5872 105.811 22.7988C105.811 23.0104 105.802 23.2301 105.786 23.458C105.786 23.6696 105.77 23.873 105.737 24.0684C105.705 24.2637 105.64 24.4183 105.542 24.5322C105.558 24.6136 105.623 24.6462 105.737 24.6299C105.851 24.5973 105.908 24.6462 105.908 24.7764C105.908 24.9229 105.892 25.0775 105.859 25.2402C105.827 25.403 105.811 25.5658 105.811 25.7285C105.811 26.0378 105.843 26.3796 105.908 26.7539C105.99 27.112 106.104 27.4456 106.25 27.7549C106.413 28.0641 106.624 28.3245 106.885 28.5361C107.145 28.7314 107.471 28.8291 107.861 28.8291C108.122 28.8291 108.366 28.7803 108.594 28.6826C108.822 28.585 109.009 28.4222 109.155 28.1943L109.277 28.1699C109.342 28.1699 109.399 28.1781 109.448 28.1943C109.513 28.2106 109.578 28.2188 109.644 28.2188C109.741 28.2188 109.863 28.1618 110.01 28.0479C110.173 27.9176 110.343 27.7712 110.522 27.6084C110.718 27.4456 110.913 27.291 111.108 27.1445C111.304 26.9818 111.491 26.8678 111.67 26.8027C111.784 26.5749 111.89 26.347 111.987 26.1191C112.101 25.8913 112.264 25.7122 112.476 25.582V24.874C112.638 24.695 112.809 24.5322 112.988 24.3857C113.184 24.2393 113.33 24.0521 113.428 23.8242C113.509 23.8568 113.582 23.8812 113.647 23.8975C113.729 23.9137 113.81 23.9219 113.892 23.9219C113.973 23.9219 114.054 23.9137 114.136 23.8975C114.233 23.8812 114.323 23.8568 114.404 23.8242C114.535 24.0033 114.632 24.2067 114.697 24.4346C114.779 24.6462 114.876 24.8496 114.99 25.0449C114.844 25.3379 114.673 25.6878 114.478 26.0947C114.282 26.5016 114.071 26.9085 113.843 27.3154C113.615 27.7223 113.371 28.113 113.11 28.4873C112.866 28.8454 112.622 29.1221 112.378 29.3174C112.329 29.3662 112.223 29.4232 112.061 29.4883C111.882 29.6185 111.719 29.7406 111.572 29.8545C111.426 29.9847 111.287 30.1312 111.157 30.2939C110.685 30.4404 110.229 30.6357 109.79 30.8799C109.367 31.124 108.944 31.36 108.521 31.5879C108.325 31.5391 108.114 31.5146 107.886 31.5146C107.69 31.5146 107.495 31.5228 107.3 31.5391C107.104 31.5716 106.893 31.5879 106.665 31.5879C106.6 31.5065 106.502 31.4495 106.372 31.417C106.258 31.4007 106.217 31.3193 106.25 31.1729C105.697 31.1403 105.249 30.9857 104.907 30.709C104.565 30.4486 104.272 30.123 104.028 29.7324C103.8 29.3418 103.613 28.9186 103.467 28.4629C103.32 28.0072 103.166 27.5677 103.003 27.1445V27.0713C103.003 26.9899 103.035 26.9411 103.101 26.9248C103.166 26.9085 103.198 26.8597 103.198 26.7783C103.198 26.7458 103.19 26.7214 103.174 26.7051C103.125 26.526 103.084 26.3714 103.052 26.2412C103.019 26.111 103.003 25.9564 103.003 25.7773C103.003 25.5169 103.019 25.2646 103.052 25.0205C103.084 24.7601 103.101 24.4997 103.101 24.2393C103.101 23.9788 103.068 23.751 103.003 23.5557C103.068 23.4743 103.125 23.3685 103.174 23.2383C103.206 23.0918 103.231 22.9453 103.247 22.7988C103.263 22.6523 103.271 22.5059 103.271 22.3594C103.288 22.2129 103.312 22.0827 103.345 21.9688C103.28 21.7897 103.223 21.6351 103.174 21.5049C103.125 21.3584 103.101 21.1875 103.101 20.9922V20.8213C103.263 20.5446 103.402 20.2598 103.516 19.9668C103.63 19.6738 103.752 19.3727 103.882 19.0635V18.9902C103.882 18.5182 103.866 18.0462 103.833 17.5742C103.8 17.1022 103.784 16.6302 103.784 16.1582V15.6943C103.784 15.5316 103.792 15.377 103.809 15.2305C103.939 15.1654 104.036 15.0758 104.102 14.9619C104.167 14.848 104.264 14.7585 104.395 14.6934H105.2L105.347 14.4492C105.396 14.3678 105.428 14.2783 105.444 14.1807C105.623 14.1318 105.794 14.0667 105.957 13.9854C106.136 13.8877 106.299 13.79 106.445 13.6924C106.673 13.5622 106.877 13.4482 107.056 13.3506C107.251 13.2367 107.438 13.1471 107.617 13.082C107.812 13.0007 108.016 12.9355 108.228 12.8867C108.439 12.8379 108.683 12.7972 108.96 12.7646C109.09 12.7646 109.172 12.7402 109.204 12.6914C109.253 12.6426 109.318 12.5856 109.399 12.5205C109.595 12.5531 109.79 12.5856 109.985 12.6182C110.181 12.6344 110.376 12.6426 110.571 12.6426C110.962 12.6426 111.328 12.5693 111.67 12.4229C112.158 12.4229 112.638 12.4147 113.11 12.3984C113.599 12.3822 114.087 12.374 114.575 12.374C114.998 12.374 115.422 12.3903 115.845 12.4229C116.268 12.4554 116.683 12.5124 117.09 12.5938C117.236 12.5449 117.399 12.5205 117.578 12.5205C117.773 12.5205 117.969 12.5449 118.164 12.5938C118.376 12.6263 118.579 12.6263 118.774 12.5938C118.791 12.7728 118.831 12.9274 118.896 13.0576C118.978 13.1715 119.019 13.3099 119.019 13.4727ZM138.867 13.3018C138.802 13.5133 138.696 13.7087 138.55 13.8877L138.135 14.4004C138.005 14.5632 137.891 14.7422 137.793 14.9375C137.712 15.1165 137.687 15.3281 137.72 15.5723C137.687 15.5723 137.646 15.5723 137.598 15.5723C137.549 15.556 137.508 15.5479 137.476 15.5479C137.215 15.5479 137.012 15.613 136.865 15.7432C136.735 15.8571 136.556 15.9548 136.328 16.0361C136.296 15.9385 136.255 15.849 136.206 15.7676C136.157 15.6699 136.084 15.6048 135.986 15.5723C135.596 15.6536 135.205 15.7188 134.814 15.7676C134.424 15.8001 134.033 15.849 133.643 15.9141C133.464 15.9466 133.285 15.9954 133.105 16.0605C132.926 16.1094 132.739 16.1582 132.544 16.207C132.446 16.2396 132.34 16.2559 132.227 16.2559C132.113 16.2396 131.999 16.2396 131.885 16.2559C131.494 16.2721 131.071 16.3047 130.615 16.3535C130.16 16.3861 129.753 16.5081 129.395 16.7197C129.232 16.6872 129.061 16.6628 128.882 16.6465C128.703 16.6302 128.524 16.6221 128.345 16.6221C127.954 16.6221 127.523 16.6628 127.051 16.7441C126.595 16.8092 126.188 16.9476 125.83 17.1592C125.749 17.1266 125.659 17.1022 125.562 17.0859C125.48 17.0697 125.382 17.0615 125.269 17.0615C125.236 17.0615 125.212 17.0697 125.195 17.0859C125.179 17.0859 125.155 17.0859 125.122 17.0859C125.106 17.2324 125.122 17.3789 125.171 17.5254C125.236 17.6556 125.342 17.7614 125.488 17.8428C125.423 18.0218 125.391 18.2171 125.391 18.4287C125.391 18.7054 125.407 18.9821 125.439 19.2588C125.488 19.5355 125.513 19.8122 125.513 20.0889C125.513 20.3981 125.472 20.6423 125.391 20.8213C125.553 21.3096 125.635 21.8304 125.635 22.3838C125.635 22.5791 125.618 22.7744 125.586 22.9697C125.57 23.1488 125.562 23.3441 125.562 23.5557C125.562 23.7347 125.627 23.8812 125.757 23.9951C125.887 24.0928 125.952 24.2311 125.952 24.4102C125.952 24.4753 125.936 24.5404 125.903 24.6055C126.131 24.5566 126.351 24.4915 126.562 24.4102C126.774 24.3125 126.994 24.2637 127.222 24.2637C127.352 24.2637 127.474 24.2881 127.588 24.3369C127.718 24.3857 127.832 24.4508 127.93 24.5322C127.913 24.6136 127.897 24.7031 127.881 24.8008C127.881 24.8984 127.881 24.9961 127.881 25.0938C127.881 25.2728 127.881 25.4437 127.881 25.6064C127.897 25.7529 127.913 25.9157 127.93 26.0947C127.799 26.3226 127.645 26.526 127.466 26.7051C127.303 26.8841 127.189 27.112 127.124 27.3887C126.88 27.3887 126.66 27.4456 126.465 27.5596C126.286 27.6572 126.115 27.7712 125.952 27.9014C125.789 28.0153 125.627 28.1292 125.464 28.2432C125.301 28.3408 125.122 28.3896 124.927 28.3896C124.683 28.3896 124.512 28.3571 124.414 28.292C124.316 28.2106 124.243 28.1292 124.194 28.0479C124.146 27.9665 124.097 27.8932 124.048 27.8281C124.015 27.763 123.934 27.7386 123.804 27.7549C123.771 27.5433 123.706 27.348 123.608 27.1689C123.511 26.9736 123.405 26.7865 123.291 26.6074C123.193 26.4284 123.088 26.2493 122.974 26.0703C122.876 25.875 122.803 25.6797 122.754 25.4844C122.656 25.0612 122.616 24.6217 122.632 24.166C122.648 23.7103 122.575 23.2708 122.412 22.8477C122.445 22.6198 122.469 22.3919 122.485 22.1641C122.502 21.9199 122.51 21.6839 122.51 21.4561C122.51 21.0003 122.493 20.5527 122.461 20.1133C122.445 19.6576 122.428 19.1937 122.412 18.7217C122.298 18.5752 122.225 18.4124 122.192 18.2334C122.176 18.0381 122.16 17.8509 122.144 17.6719C122.095 17.623 122.038 17.5742 121.973 17.5254C121.924 17.4766 121.891 17.4115 121.875 17.3301C121.745 17.2975 121.647 17.2812 121.582 17.2812C121.354 17.2812 121.159 17.3382 120.996 17.4521C120.85 17.5498 120.711 17.5986 120.581 17.5986C120.451 17.5986 120.329 17.5824 120.215 17.5498C120.101 17.5173 119.987 17.501 119.873 17.501C119.775 17.501 119.718 17.5254 119.702 17.5742C119.702 17.6068 119.67 17.6393 119.604 17.6719C119.556 17.7044 119.442 17.737 119.263 17.7695C119.084 17.8021 118.88 17.8346 118.652 17.8672C118.441 17.8835 118.229 17.8997 118.018 17.916C117.822 17.9323 117.692 17.9404 117.627 17.9404C117.367 17.9404 117.171 17.8916 117.041 17.7939C116.895 17.68 116.724 17.5579 116.528 17.4277C116.561 17.3301 116.577 17.265 116.577 17.2324C116.577 17.0697 116.528 16.9395 116.431 16.8418C116.333 16.7279 116.284 16.6302 116.284 16.5488C116.284 16.3698 116.357 16.2314 116.504 16.1338C116.634 16.0361 116.707 15.8815 116.724 15.6699C117.098 15.5072 117.48 15.3851 117.871 15.3037C118.262 15.2223 118.66 15.1572 119.067 15.1084C119.474 15.0596 119.873 15.0026 120.264 14.9375C120.671 14.8724 121.069 14.7666 121.46 14.6201C121.574 14.6364 121.68 14.6527 121.777 14.6689C121.891 14.6689 122.005 14.6689 122.119 14.6689C122.607 14.6689 123.088 14.6201 123.56 14.5225C124.048 14.4085 124.544 14.3516 125.049 14.3516C125.179 14.3516 125.309 14.3597 125.439 14.376C125.57 14.3923 125.7 14.4167 125.83 14.4492C126.481 14.3516 127.124 14.2458 127.759 14.1318C128.41 14.0179 129.077 13.9202 129.761 13.8389C130.086 13.8063 130.404 13.7819 130.713 13.7656C131.038 13.7331 131.364 13.6924 131.689 13.6436C131.803 13.6273 131.885 13.6029 131.934 13.5703C131.999 13.5215 132.031 13.432 132.031 13.3018C132.178 13.3669 132.34 13.3994 132.52 13.3994C132.796 13.3994 133.065 13.3506 133.325 13.2529C133.586 13.1553 133.854 13.1064 134.131 13.1064C134.196 13.1064 134.253 13.1146 134.302 13.1309C134.351 13.1309 134.399 13.1309 134.448 13.1309C134.562 13.1309 134.619 13.082 134.619 12.9844C134.635 12.8704 134.717 12.7972 134.863 12.7646C134.977 12.7321 135.14 12.7077 135.352 12.6914C135.563 12.6751 135.783 12.6589 136.011 12.6426C136.255 12.61 136.475 12.5775 136.67 12.5449C136.882 12.4961 137.036 12.431 137.134 12.3496L137.305 12.0811C137.598 12.0973 137.809 12.2275 137.939 12.4717C138.086 12.6995 138.167 12.9518 138.184 13.2285C138.249 13.2936 138.338 13.3262 138.452 13.3262C138.582 13.3099 138.696 13.3018 138.794 13.3018H138.867Z" fill="white"/>
</svg>
